<?xml version="1.0" standalone="no"?>
<!DOCTYPE svg PUBLIC "-//W3C//DTD SVG 20010904//EN"
 "http://www.w3.org/TR/2001/REC-SVG-20010904/DTD/svg10.dtd">
<svg version="1.0" xmlns="http://www.w3.org/2000/svg"
 width="408.000000pt" height="430.000000pt" viewBox="0 0 408.000000 430.000000"
 preserveAspectRatio="xMidYMid meet">

<g transform="translate(0.000000,430.000000) scale(0.100000,-0.100000)"
fill="#000000" stroke="none">
<path d="M1907 3317 c-20 -7 -53 -25 -72 -40 -57 -46 -69 -78 -75 -207 l-5
-115 -102 -3 -102 -3 -5 -32 c-3 -18 -12 -153 -21 -302 -9 -148 -20 -331 -25
-405 -5 -74 -12 -186 -16 -247 l-7 -113 522 0 c493 0 522 1 517 18 -2 9 -7 58
-10 107 -7 108 -32 516 -49 780 l-12 190 -101 3 -101 3 -5 107 c-6 119 -20
163 -68 211 -54 53 -174 75 -263 48z m153 -8 c62 -13 115 -57 141 -114 14 -30
19 -65 19 -142 l0 -103 -225 0 -225 0 0 100 c0 136 27 197 105 238 61 31 110
37 185 21z m122 -576 c19 -21 22 -106 20 -470 -2 -205 -4 -244 -18 -257 -23
-24 -355 -24 -378 0 -14 13 -16 60 -16 361 0 308 2 348 17 365 14 16 34 18
188 18 151 0 174 -2 187 -17z"/>
<path d="M1807 2654 c-4 -4 -7 -135 -7 -291 l0 -283 195 0 195 0 -2 288 -3
287 -186 3 c-102 1 -188 -1 -192 -4z"/>
<path d="M1977 2054 c-12 -12 -8 -42 6 -47 21 -8 39 8 35 29 -3 19 -29 30 -41
18z"/>
<path d="M2180 1660 c-17 -17 -20 -33 -20 -126 0 -136 4 -144 78 -144 87 0 87
0 87 140 0 109 -2 123 -19 136 -30 21 -102 18 -126 -6z m90 -125 l0 -105 -25
0 -25 0 0 105 0 105 25 0 25 0 0 -105z"/>
<path d="M2390 1660 c-18 -18 -20 -33 -20 -145 l0 -125 30 0 29 0 3 123 c3
114 4 122 23 122 19 0 20 -8 23 -122 l3 -123 24 0 25 0 0 135 c0 123 -2 135
-19 145 -33 17 -99 12 -121 -10z"/>
<path d="M1300 1530 l0 -140 30 0 c30 0 30 1 30 55 0 53 1 55 28 55 15 0 38 7
50 16 18 13 22 25 22 73 0 31 -5 62 -12 69 -7 7 -40 12 -80 12 l-68 0 0 -140z
m100 55 c0 -38 -3 -45 -20 -45 -17 0 -20 7 -20 45 0 38 3 45 20 45 17 0 20 -7
20 -45z"/>
<path d="M1480 1645 c0 -20 5 -25 25 -25 l25 0 0 -116 0 -115 27 3 28 3 -4
113 -3 112 26 0 c21 0 26 5 26 25 0 24 -2 25 -75 25 -73 0 -75 -1 -75 -25z"/>
<path d="M1750 1530 l0 -140 30 0 c30 0 30 1 30 55 0 53 1 55 28 55 15 0 38 7
50 16 18 13 22 25 22 73 0 31 -5 62 -12 69 -7 7 -40 12 -80 12 l-68 0 0 -140z
m100 55 c0 -38 -3 -45 -20 -45 -17 0 -20 7 -20 45 0 38 3 45 20 45 17 0 20 -7
20 -45z"/>
<path d="M1950 1530 l0 -140 25 0 c24 0 25 3 25 55 0 54 0 55 30 55 30 0 30
-1 30 -55 0 -52 1 -55 25 -55 l25 0 2 115 c1 63 2 125 2 138 1 17 -5 23 -26
25 -28 3 -28 3 -28 -58 0 -61 0 -61 -27 -58 -27 3 -28 5 -28 61 0 56 -1 57
-27 57 l-28 0 0 -140z"/>
<path d="M2580 1530 l0 -140 65 0 c63 0 65 1 65 25 0 22 -4 25 -35 25 -33 0
-35 2 -35 35 0 32 2 35 30 35 25 0 30 4 30 25 0 21 -5 25 -30 25 -28 0 -30 3
-30 35 0 33 2 35 35 35 28 0 35 4 35 20 0 18 -7 20 -65 20 l-65 0 0 -140z"/>
</g>
</svg>
